<svg xmlns="http://www.w3.org/2000/svg" xmlns:xlink="http://www.w3.org/1999/xlink" width="500" zoomAndPan="magnify" viewBox="0 0 375 374.999991" height="500" preserveAspectRatio="xMidYMid meet" version="1.0"><defs><clipPath id="2eb49828ea"><path d="M 51.0625 14.128906 L 324 14.128906 L 324 348.628906 L 51.0625 348.628906 Z M 51.0625 14.128906 " clip-rule="nonzero"/></clipPath></defs><rect x="-37.5" width="450" fill="#ffffff" y="-37.499999" height="449.999989" fill-opacity="1"/><rect x="-37.5" width="450" fill="#ffffff" y="-37.499999" height="449.999989" fill-opacity="1"/><g clip-path="url(#2eb49828ea)"><path fill="#000000" d="M 164.320312 210.269531 L 239.929688 134.566406 C 240.320312 134.191406 240.746094 133.855469 241.203125 133.558594 C 241.65625 133.265625 242.136719 133.015625 242.640625 132.8125 C 243.144531 132.609375 243.664062 132.453125 244.195312 132.351562 C 244.730469 132.246094 245.265625 132.191406 245.808594 132.191406 C 246.351562 132.191406 246.890625 132.238281 247.425781 132.339844 C 247.957031 132.441406 248.476562 132.59375 248.984375 132.792969 C 249.488281 132.992188 249.96875 133.238281 250.425781 133.53125 C 250.882812 133.824219 251.308594 134.15625 251.703125 134.53125 C 252.089844 134.917969 252.4375 135.335938 252.742188 135.792969 C 253.046875 136.246094 253.304688 136.726562 253.511719 137.230469 C 253.722656 137.734375 253.882812 138.253906 253.988281 138.789062 C 254.097656 139.328125 254.152344 139.867188 254.15625 140.414062 C 254.15625 140.960938 254.105469 141.503906 254 142.039062 C 253.894531 142.578125 253.738281 143.097656 253.53125 143.605469 C 253.324219 144.109375 253.070312 144.589844 252.769531 145.046875 C 252.46875 145.503906 252.125 145.925781 251.738281 146.3125 L 169.257812 228.902344 C 168.476562 229.6875 167.578125 230.292969 166.558594 230.71875 C 165.539062 231.144531 164.476562 231.355469 163.371094 231.355469 L 163.34375 231.355469 C 162.246094 231.359375 161.1875 231.148438 160.171875 230.730469 C 159.15625 230.3125 158.257812 229.714844 157.480469 228.9375 C 157.144531 228.601562 156.835938 228.238281 156.5625 227.847656 L 122.59375 187.464844 C 122.269531 187.019531 121.992188 186.550781 121.757812 186.050781 C 121.527344 185.550781 121.347656 185.035156 121.214844 184.5 C 121.085938 183.964844 121.011719 183.425781 120.988281 182.875 C 120.964844 182.324219 120.996094 181.78125 121.082031 181.234375 C 121.167969 180.691406 121.308594 180.164062 121.5 179.648438 C 121.6875 179.132812 121.929688 178.640625 122.214844 178.171875 C 122.503906 177.703125 122.835938 177.265625 123.210938 176.863281 C 123.585938 176.460938 123.996094 176.097656 124.441406 175.777344 C 124.886719 175.457031 125.359375 175.179688 125.859375 174.953125 C 126.359375 174.726562 126.878906 174.550781 127.414062 174.425781 C 127.949219 174.296875 128.492188 174.226562 129.039062 174.210938 C 129.589844 174.191406 130.136719 174.226562 130.679688 174.316406 C 131.21875 174.410156 131.75 174.550781 132.261719 174.746094 C 132.777344 174.941406 133.265625 175.183594 133.734375 175.476562 C 134.199219 175.769531 134.632812 176.101562 135.03125 176.480469 C 135.429688 176.859375 135.789062 177.269531 136.105469 177.71875 Z M 323.664062 204.03125 C 323.867188 228.839844 309.453125 258.109375 283.074219 286.445312 C 271.710938 298.625 259.261719 309.574219 245.730469 319.292969 L 245.148438 319.671875 C 244.910156 319.804688 244.6875 319.960938 244.476562 320.136719 L 243.925781 320.578125 C 227.804688 332.214844 210.371094 341.335938 191.617188 347.941406 L 189.246094 348.726562 L 186.859375 347.976562 C 181.148438 346.15625 175.550781 344.039062 170.066406 341.625 C 169.726562 341.449219 169.378906 341.296875 169.023438 341.160156 L 168.554688 340.96875 C 154.667969 334.503906 141.492188 326.824219 129.027344 317.921875 C 116.558594 309.019531 105.015625 299.050781 94.394531 288.011719 C 83.160156 276.566406 73.558594 263.882812 65.582031 249.96875 L 65.292969 249.386719 C 65.167969 249.125 65.019531 248.878906 64.851562 248.644531 L 64.527344 248.105469 C 60.851562 241.726562 57.992188 235.003906 55.945312 227.929688 C 53.902344 220.855469 52.734375 213.640625 52.441406 206.285156 L 51.464844 86.941406 L 52.046875 86.625 L 186.460938 14.128906 L 186.976562 14.398438 L 322.667969 84.734375 Z M 307.339844 94.148438 L 186.621094 31.597656 L 66.980469 96.121094 L 67.890625 206.160156 C 68.175781 212.210938 69.171875 218.144531 70.882812 223.953125 C 72.589844 229.765625 74.960938 235.292969 77.996094 240.535156 C 78.457031 241.242188 78.863281 241.976562 79.222656 242.742188 C 86.523438 255.375 95.289062 266.898438 105.511719 277.3125 C 115.417969 287.609375 126.175781 296.914062 137.796875 305.226562 C 149.414062 313.539062 161.691406 320.722656 174.632812 326.769531 C 175.324219 327.027344 176 327.320312 176.660156 327.652344 C 180.777344 329.417969 185.097656 331.101562 189.105469 332.449219 C 205.402344 326.390625 220.613281 318.289062 234.734375 308.140625 C 235.453125 307.546875 236.210938 307.007812 237.007812 306.523438 C 249.59375 297.457031 261.179688 287.253906 271.765625 275.914062 C 295.441406 250.476562 308.378906 224.988281 308.214844 204.140625 Z M 307.339844 94.148438 " fill-opacity="1" fill-rule="nonzero"/></g></svg>